<svg xmlns="http://www.w3.org/2000/svg" width="267.398" height="118.733" viewBox="0 0 267.398 118.733">
  <g id="art-school" transform="translate(-960 -3108.887)">
    <g id="Group_46" data-name="Group 46" transform="translate(599 2138)">
      <text id="Art_School" data-name="Art School" transform="translate(361 1045)" font-size="36" font-family="CroissantOne-Regular, Croissant One" letter-spacing="-0.06em"><tspan x="0" y="0">Art School</tspan></text>
      <text id="TRADITIONAL_PAINTING" data-name="TRADITIONAL PAINTING" transform="translate(361 1068)" font-size="12" font-family="Roboto-Regular, Roboto" letter-spacing="0.2em"><tspan x="0" y="0">TRADITIONAL PAINTING</tspan></text>
    </g>
    <g id="Group_414" data-name="Group 414" transform="translate(1097 3108.887)">
      <g id="Group_412" data-name="Group 412">
        <path id="Path_593" data-name="Path 593" d="M99.68,56.61c1.06-.49,3.05.45,5.59,2.63,4.21,3.6,6.62,4.72,8.31,3.86,1.76-.9,1.71-3.42,1.53-5.71-.19-2.34.58-4.51,1.95-5.54a2.41,2.41,0,0,1,2.44-.36,1.234,1.234,0,0,0,.87-2.31,4.874,4.874,0,0,0-4.8.69c-2.06,1.55-3.18,4.5-2.93,7.71.22,2.77-.13,3.25-.18,3.31-.04.02-1.1.3-5.59-3.54-3.51-3.01-6.13-3.96-8.23-3-1.41.65-2.38,2.1-2.97,4.51a48.835,48.835,0,0,0-9.94-8.81c-.11-.07-.21-.12-.31-.19-1.22-3.19-1.04-4.63-.56-5.27.71-.92,2.9-1.03,6.17-.29,5.41,1.21,8.06,1.08,9.15-.47,1.14-1.62-.08-3.82-1.32-5.76-1.26-1.98-1.6-4.26-.87-5.81a2.4,2.4,0,0,1,1.99-1.46,1.235,1.235,0,0,0-.31-2.45,4.9,4.9,0,0,0-3.92,2.86c-1.1,2.33-.71,5.47,1.02,8.18,1.49,2.34,1.4,2.94,1.39,3.01-.03.03-.84.78-6.59-.51-4.51-1.01-7.27-.63-8.67,1.2-.93,1.21-1.09,2.93-.52,5.28-2.43-.86-3.84-.39-4.63.3a3.279,3.279,0,0,0-1.03,1.98l-16,34.56a3.8,3.8,0,0,0,3.42,5.4,3.945,3.945,0,0,0,1.16-.18l9.47-2.96L75.22,92a3.086,3.086,0,0,0,3.05,2.72,3.115,3.115,0,0,0,.85-.12l15.07-4.33a3.075,3.075,0,0,0,1.8-4.52L93.54,81.6l8.16-2.55a3.155,3.155,0,0,0,2.04-.75c1.1-.96,1.94-3.15-.33-8.08a45.481,45.481,0,0,0-5.7-8.91C98.16,58.09,98.97,56.93,99.68,56.61Zm-5.69,4.06c.41.46.8.93,1.19,1.39-.13,1.31-.19,2.79-.2,4.46,0,1.01-.13,2.38-.94,2.78-1.65.82-3.95-.57-4.21-.53-.75-.76-1.51-1.57-2.29-2.46-1.25-1.43-2.4-2.87-3.43-4.3a5.54,5.54,0,0,0,3.83-2.27c.85-1.41.72-3.2-.4-5.33-.01-.01-.01-.03-.02-.04A55.8,55.8,0,0,1,93.99,60.67ZM80.04,50.38a8.11,8.11,0,0,1,3.42,1.21c.5,1.21,1.12,2.53,1.89,3.99.47.9.94,2.13.47,2.9-.6.99-2.58,1.23-3.23,1.23h0c-.02,0-.04.01-.06.01a32.308,32.308,0,0,1-2.2-3.98C79.33,53.54,78.6,50.32,80.04,50.38ZM64.58,88.1a1.333,1.333,0,0,1-1.61-1.83L77.4,55.09q.285.78.69,1.68a48.744,48.744,0,0,0,7.59,11.18c3.73,4.25,8.07,8.01,11.71,9.88Zm29.31-1.08a.606.606,0,0,1-.36.89L78.46,92.24a.564.564,0,0,1-.5-.08.559.559,0,0,1-.26-.41l-.49-5.02,13.94-4.36Zm7.3-15.76c1.4,3.05,1.58,4.82,1.05,5.06-2.28,1-5.34-1.24-8.97-4.31a4.181,4.181,0,0,0,2.03-.57c1.41-.85,2.13-2.5,2.14-4.89,0-.53.01-1.02.02-1.5A36.944,36.944,0,0,1,101.19,71.26Z" fill="#231f20"/>
        <path id="Path_594" data-name="Path 594" d="M64.58,88.1a1.333,1.333,0,0,1-1.61-1.83L77.4,55.09q.285.78.69,1.68a48.744,48.744,0,0,0,7.59,11.18c3.73,4.25,8.07,8.01,11.71,9.88Z" fill="#25a9e0"/>
        <path id="Path_595" data-name="Path 595" d="M69.92,83.73c.63.72,1.28,1.41,1.94,2.1L97.4,77.84c-3.64-1.86-7.98-5.63-11.71-9.88A48.85,48.85,0,0,1,78.1,56.78q-.4-.9-.69-1.68L66.27,79.15C67.37,80.67,68.59,82.21,69.92,83.73Z" fill="#8bc53f"/>
        <path id="Path_596" data-name="Path 596" d="M75.21,78.43a60.833,60.833,0,0,0,4.77,4.85L97.4,77.83c-3.64-1.86-7.98-5.63-11.71-9.88A48.85,48.85,0,0,1,78.1,56.77q-.4-.9-.69-1.68L69.88,71.36A55.742,55.742,0,0,0,75.21,78.43Z" fill="#eb008b"/>
        <path id="Path_597" data-name="Path 597" d="M80.84,72.58a60.828,60.828,0,0,0,8.25,7.85l8.3-2.6c-3.64-1.86-7.98-5.63-11.71-9.88a48.85,48.85,0,0,1-7.59-11.18q-.4-.9-.69-1.68l-3.59,7.75A59.825,59.825,0,0,0,80.84,72.58Z" fill="#ffdd15"/>
        <g id="Group_411" data-name="Group 411">
          <path id="Path_598" data-name="Path 598" d="M93.99,60.67c.41.46.8.93,1.19,1.39-.13,1.31-.19,2.79-.2,4.46,0,1.01-.13,2.38-.94,2.78-1.65.82-3.95-.57-4.21-.53-.75-.76-1.51-1.57-2.29-2.46-1.25-1.43-2.4-2.87-3.43-4.3a5.54,5.54,0,0,0,3.83-2.27c.85-1.41.72-3.2-.4-5.33-.01-.01-.01-.03-.02-.04A55.8,55.8,0,0,1,93.99,60.67Z" fill="#1b75bb"/>
          <path id="Path_599" data-name="Path 599" d="M80.04,50.38a8.11,8.11,0,0,1,3.42,1.21c.5,1.21,1.12,2.53,1.89,3.99.47.9.94,2.13.47,2.9-.6.99-2.58,1.23-3.23,1.23h0c-.02,0-.04.01-.06.01a32.308,32.308,0,0,1-2.2-3.98C79.33,53.54,78.6,50.32,80.04,50.38Z" fill="#1b75bb"/>
          <path id="Path_600" data-name="Path 600" d="M101.19,71.26c1.4,3.05,1.58,4.82,1.05,5.06-2.28,1-5.34-1.24-8.97-4.31a4.181,4.181,0,0,0,2.03-.57c1.41-.85,2.13-2.5,2.14-4.89,0-.53.01-1.02.02-1.5A36.944,36.944,0,0,1,101.19,71.26Z" fill="#1b75bb"/>
        </g>
        <path id="Path_601" data-name="Path 601" d="M78.2,38.89a2.088,2.088,0,1,0-2.52-1.54A2.09,2.09,0,0,0,78.2,38.89Z" fill="#231f20"/>
        <path id="Path_602" data-name="Path 602" d="M90.57,38.71a1.749,1.749,0,1,0-2.11-1.29A1.754,1.754,0,0,0,90.57,38.71Z" fill="#231f20"/>
        <path id="Path_603" data-name="Path 603" d="M61.17,66.45a1.749,1.749,0,1,0-1.29,2.11A1.754,1.754,0,0,0,61.17,66.45Z" fill="#231f20"/>
        <path id="Path_604" data-name="Path 604" d="M111.11,69.22a1.749,1.749,0,1,0,2.11,1.29A1.754,1.754,0,0,0,111.11,69.22Z" fill="#231f20"/>
        <path id="Path_605" data-name="Path 605" d="M114.25,41.46a1.749,1.749,0,1,0-2.11-1.29A1.754,1.754,0,0,0,114.25,41.46Z" fill="#231f20"/>
        <path id="Path_606" data-name="Path 606" d="M126.3,75.23c-1.95-.25-4.53.82-5.95,4.57-.56,1.49-1.26,2.38-1.86,2.38h0c-.75,0-1.86-1.19-2.38-2.54a4.085,4.085,0,0,0-2.26-2.52c-1.62-.63-3.44.09-4.83.78a1.23,1.23,0,0,0,1.1,2.2c1.34-.67,2.29-.9,2.83-.69a1.748,1.748,0,0,1,.85,1.1c.76,1.99,2.55,4.13,4.68,4.13h0c1.21,0,2.92-.69,4.16-3.97.77-2.04,2.03-3.15,3.33-3a2.424,2.424,0,0,1,1.97,2.31,1.232,1.232,0,0,0,2.45-.27A4.875,4.875,0,0,0,126.3,75.23Z" fill="#231f20"/>
      </g>
      <path id="Path_607" data-name="Path 607" d="M27.2,110.03a6.692,6.692,0,0,0-2.74-4.44l.1-1.71a.248.248,0,0,0-.41-.2l-1.24,1.09a6.7,6.7,0,1,0,4.29,5.26Z" fill="#8bc53f"/>
      <circle id="Ellipse_23" data-name="Ellipse 23" cx="5.4" cy="5.4" r="5.4" transform="translate(0 18.36)" fill="#25a9e0"/>
      <rect id="Rectangle_68" data-name="Rectangle 68" width="11.04" height="11.04" transform="matrix(0.963, -0.271, 0.271, 0.963, 54.322, 108.106)" fill="#eb008b"/>
      <g id="Group_413" data-name="Group 413">
        <path id="Path_608" data-name="Path 608" d="M46.62,23.09h0a3.685,3.685,0,0,1-2-1.16L42.4,19.49l-3.01,1.35a3.726,3.726,0,0,1-2.3.26,3.8,3.8,0,0,1-2.67-2.15,3.676,3.676,0,0,1,.18-3.38l1.64-2.86-2.22-2.44a3.749,3.749,0,0,1,3.54-6.19l3.23.67,1.64-2.86a3.748,3.748,0,0,1,6.98,1.45l.36,3.28L53,7.3a3.743,3.743,0,0,1,.77,7.08l-3.01,1.35.36,3.28a3.694,3.694,0,0,1-1.19,3.17A3.819,3.819,0,0,1,46.62,23.09Zm-3.78-5.67a1.655,1.655,0,0,1,.92.53l2.37,2.61a1.638,1.638,0,0,0,.91.53,1.769,1.769,0,0,0,1.52-.42,1.678,1.678,0,0,0,.54-1.44l-.38-3.51a1.707,1.707,0,0,1,1-1.75l3.22-1.45a1.707,1.707,0,0,0-.35-3.23l-3.46-.72a1.71,1.71,0,0,1-1.36-1.49l-.38-3.51a1.709,1.709,0,0,0-3.18-.67L42.46,5.96a1.713,1.713,0,0,1-1.84.83l-3.46-.72a1.706,1.706,0,0,0-1.61,2.82l2.37,2.61a1.72,1.72,0,0,1,.22,2.01l-1.75,3.06a1.679,1.679,0,0,0-.09,1.54,1.779,1.779,0,0,0,1.22,1,1.744,1.744,0,0,0,1.05-.12l3.22-1.45A1.71,1.71,0,0,1,42.84,17.42Z" fill="#ffdd15"/>
      </g>
      <path id="Path_609" data-name="Path 609" d="M48.93,49.23,45.32,38.51l12.59,3.45-3.83-5.38L70.53,24.47,59.5,37.08l9.03,8.49Z" fill="#faaf40"/>
    </g>
  </g>
</svg>
